<svg xmlns="http://www.w3.org/2000/svg" width="15.913" height="17.559" viewBox="0 0 15.913 17.559">
  <path id="bell" d="M16.765,10l-1.39-5a6.819,6.819,0,0,0-13.226.347L1.073,10.18a3.658,3.658,0,0,0,3.571,4.452h.815a3.658,3.658,0,0,0,7.169,0h.613A3.658,3.658,0,0,0,16.766,10Zm-7.722,6.1a2.195,2.195,0,0,1-2.06-1.463H11.1A2.195,2.195,0,0,1,9.043,16.095ZM14.988,12.3a2.178,2.178,0,0,1-1.748.867h-8.6A2.195,2.195,0,0,1,2.5,10.5l1.075-4.84a5.356,5.356,0,0,1,10.388-.272l1.39,5a2.178,2.178,0,0,1-.367,1.915Z" transform="translate(-0.986 -0.002)" fill="#f9c100"/>
</svg>
