<svg xmlns="http://www.w3.org/2000/svg" width="24" height="24" viewBox="0 0 24 24">
  <g id="Group_75592" data-name="Group 75592" transform="translate(-393 -787)">
    <rect id="Rectangle_662" data-name="Rectangle 662" width="24" height="24" rx="5" transform="translate(393 787)" fill="#1b1e23"/>
    <g id="bookmark" transform="translate(396.786 790.037)">
      <path id="bookmark-2" data-name="bookmark" d="M14.918,18a2.006,2.006,0,0,1-1.445-.626L9,12.789,4.527,17.378a1.992,1.992,0,0,1-2.251.457A2.1,2.1,0,0,1,1,15.866V3.75A3.7,3.7,0,0,1,4.636,0h8.727A3.7,3.7,0,0,1,17,3.75V15.866a2.1,2.1,0,0,1-1.273,1.968,2.03,2.03,0,0,1-.809.167ZM3.5,16.316C8.775,10.909,3.324,16.5,3.5,16.316Z" transform="translate(-1 0)" fill="#f9c10e"/>
    </g>
  </g>
</svg>
