<svg xmlns="http://www.w3.org/2000/svg" width="24" height="24" viewBox="0 0 24 24">
  <g id="Group_75592" data-name="Group 75592" transform="translate(-393 -787)">
    <rect id="Rectangle_662" data-name="Rectangle 662" width="24" height="24" rx="5" transform="translate(393 787)" fill="#1b1e23"/>
    <g id="bookmark" transform="translate(396.786 790.037)">
      <path id="bookmark-2" data-name="bookmark" d="M15.29,17.921a2.091,2.091,0,0,1-1.484-.624L9.214,12.732,4.622,17.3a2.091,2.091,0,0,1-2.311.455A2.091,2.091,0,0,1,1,15.8V3.734A3.734,3.734,0,0,1,4.734,0h8.961a3.734,3.734,0,0,1,3.734,3.734V15.8a2.091,2.091,0,0,1-1.307,1.959,2.141,2.141,0,0,1-.83.166ZM4.734,1.493a2.24,2.24,0,0,0-2.24,2.24V15.8a.629.629,0,0,0,1.073.448h0l5.125-5.093a.747.747,0,0,1,1.053,0l5.119,5.092a.629.629,0,0,0,1.073-.448V3.734a2.24,2.24,0,0,0-2.24-2.24Z" transform="translate(-1)" fill="#f9c10e"/>
    </g>
  </g>
</svg>
